HIERARCHY
ROOT Hips
{
  OFFSET -69.4423 88.0299 51.6846
  CHANNELS 6 Xposition Yposition Zposition Zrotation Xrotation Yrotation
  JOINT Spine
  {
    OFFSET 12.0259 -0.162853 1.93176e-005
    CHANNELS 3 Zrotation Xrotation Yrotation
    JOINT Spine1
    {
      OFFSET 15.3169 -0.0121909 0
      CHANNELS 3 Zrotation Xrotation Yrotation
      JOINT Spine2
      {
        OFFSET 15.3176 -0.0121922 0
        CHANNELS 3 Zrotation Xrotation Yrotation
        JOINT Neck
        {
          OFFSET 19.9142 1.56236 0
          CHANNELS 3 Zrotation Xrotation Yrotation
          JOINT Head
          {
            OFFSET 6.92646 0 0
            CHANNELS 3 Zrotation Xrotation Yrotation
            End Site
            {
              OFFSET 20.7666 0 0
            }
          }
          JOINT LeftShoulder
          {
            OFFSET -4.94072 -1.14703 8.14416
            CHANNELS 3 Zrotation Xrotation Yrotation
            JOINT LeftArm
            {
              OFFSET 14.108 0 -2.74767e-005
              CHANNELS 3 Zrotation Xrotation Yrotation
              JOINT LeftForeArm
              {
                OFFSET 28.5802 -0.0783412 -0.0284884
                CHANNELS 3 Zrotation Xrotation Yrotation
                JOINT LeftHand
                {
                  OFFSET 27.092 0 0
                  CHANNELS 3 Zrotation Xrotation Yrotation
                  End Site
                  {
                    OFFSET 9.55928 -0.186424 0.145352
                  }
                }
              }
            }
          }
          JOINT RightShoulder
          {
            OFFSET -7.15748 -1.33027 -6.24935
            CHANNELS 3 Zrotation Xrotation Yrotation
            JOINT RightArm
            {
              OFFSET 14.108 0 1.82997e-005
              CHANNELS 3 Zrotation Xrotation Yrotation
              JOINT RightForeArm
              {
                OFFSET 28.5802 -0.0707221 2.30684e-005
                CHANNELS 3 Zrotation Xrotation Yrotation
                JOINT RightHand
                {
                  OFFSET 27.092 0 -1.30073e-005
                  CHANNELS 3 Zrotation Xrotation Yrotation
                  End Site
                  {
                    OFFSET 9.55929 -0.186417 -0.145354
                  }
                }
              }
            }
          }
        }
      }
    }
  }
  JOINT LeftUpLeg
  {
    OFFSET 0.00499725 -0.534999 8.837
    CHANNELS 3 Zrotation Xrotation Yrotation
    JOINT LeftLeg
    {
      OFFSET 39.9035 -0.00124594 0.000252775
      CHANNELS 3 Zrotation Xrotation Yrotation
      JOINT LeftFoot
      {
        OFFSET 39.6689 0 0
        CHANNELS 3 Zrotation Xrotation Yrotation
        JOINT LeftToe
        {
          OFFSET 10.1624 13.6296 0
          CHANNELS 3 Zrotation Xrotation Yrotation
          End Site
          {
            OFFSET 8.38147 0 0
          }
        }
      }
    }
  }
  JOINT RightUpLeg
  {
    OFFSET 0.00499725 -0.535 -8.837
    CHANNELS 3 Zrotation Xrotation Yrotation
    JOINT RightLeg
    {
      OFFSET 39.9036 -0.000268477 0.000106433
      CHANNELS 3 Zrotation Xrotation Yrotation
      JOINT RightFoot
      {
        OFFSET 39.6689 1.17892e-005 0
        CHANNELS 3 Zrotation Xrotation Yrotation
        JOINT RightToe
        {
          OFFSET 10.1624 13.6296 0
          CHANNELS 3 Zrotation Xrotation Yrotation
          End Site
          {
            OFFSET 8.38147 0 0
          }
        }
      }
    }
  }
}
MOTION
Frames:	13
Frame Time:	0.0333333
-79.2143 88.0383 -42.6563 -91.5183 59.8547 -178.254 0.681892 -1.4812 -0.291192 1.35696 -2.96527 -0.56484 1.35696 -2.96528 -0.564851 -1.8473 -17.5001 -19.1382 37.7352 -21.5084 34.1533 174.798 -16.639 -102.59 -12.2575 4.6221 80.184 -18.0928 1.48472 -11.7344 24.9382 -86.2385 27.6986 174.534 -18.6267 64.7393 -0.213764 -7.80516 -84.5918 -15.8131 -1.25585 9.93067 2.07089 76.9264 -1.93945 -6.56323 2.79495 179.459 -23.6174 1.01288 -1.40087 3.89194 4.72615 1.36147 90 8.74653e-015 3.18055e-015 -9.65404 2.26399 -178.73 -34.7506 -0.550166 0.527643 7.72741 -0.944613 -1.54996 90 -1.90833e-014 -2.22639e-014 
-79.4994 88.1422 -43.1021 -92.4316 59.6945 -177.984 0.632723 -1.32121 -0.132517 1.26292 -2.64332 -0.250369 1.2629 -2.64333 -0.250379 -2.11503 -17.3443 -19.0939 37.8163 -21.3067 33.9601 175.087 -16.557 -102.528 -13.535 4.70253 81.1683 -18.8386 1.59337 -12.2093 30.2076 -86.9984 32.9589 174.868 -18.6065 64.879 -1.35732 -7.1572 -84.3454 -16.1805 -1.31774 10.1652 2.24865 77.0629 -2.13712 -7.48686 2.02074 179.945 -23.7838 1.00341 -1.43629 3.56141 4.57144 1.37679 90 1.35174e-014 1.59028e-014 -9.81727 1.65042 -178.454 -33.5494 -0.564259 0.546331 7.21842 -1.29934 -1.55971 90 -1.11319e-014 -0 
-79.7927 88.2241 -43.6115 -92.9653 59.4188 -177.909 0.657991 -1.19984 -0.00421197 1.31634 -2.39922 0.00553473 1.31633 -2.39921 0.00551669 -2.82869 -16.8313 -18.6847 37.8433 -21.0692 32.6204 176.048 -16.2523 -101.925 -15.3738 4.73829 81.8946 -19.5148 1.68871 -12.6409 42.1707 -87.8443 44.9582 175.882 -18.4313 65.5534 -2.56059 -5.90877 -84.0195 -16.1866 -1.31757 10.1707 2.79206 77.3579 -2.44051 -8.48983 1.04057 -179.872 -24.2913 0.997477 -1.46348 3.26397 3.63038 1.28224 90 -7.15625e-015 -1.27222e-014 -10.2395 1.24863 -178.399 -32.9281 -0.571224 0.550734 6.8156 -2.51938 -1.66682 90 -2.06736e-014 -6.36111e-015 
-80.0625 88.2571 -44.1916 -93.0606 58.5774 -177.949 0.767975 -1.17594 0.105701 1.53859 -2.34987 0.227392 1.5386 -2.34989 0.227376 -3.86929 -15.8068 -18.6862 38.0891 -19.503 31.5583 177.385 -15.5435 -101.639 -17.3974 4.58211 82.4857 -20.1701 1.77973 -13.0595 48.8722 -88.1794 51.6136 177.235 -17.8689 65.9032 -4.98322 -4.78823 -83.6338 -17.0589 -1.45834 10.702 3.1017 78.8746 -2.80663 -9.22393 -0.291153 179.969 -24.4878 0.998381 -1.48934 2.75533 3.08312 1.20459 90 -2.38542e-015 1.27222e-014 -10.5814 0.830594 -178.363 -32.8402 -0.575641 0.550113 6.74802 -1.90131 -1.60718 90 1.74931e-014 3.18055e-015 
-80.2816 88.2444 -44.7572 -92.6645 57.5784 -178.451 1.02038 -1.1017 0.262792 2.0464 -2.19803 0.545464 2.04638 -2.19802 0.545459 -5.39736 -14.3652 -18.5403 38.6389 -17.3961 29.9564 179.388 -14.5542 -101.099 -20.6788 4.09485 82.8274 -20.9065 1.88307 -13.5178 46.3332 -88.0429 49.1685 179.257 -17.0583 66.5003 -7.20608 -3.30435 -82.8784 -17.8613 -1.59352 11.1781 3.49466 79.6655 -3.1913 -9.97931 -1.46319 179.804 -25.1911 1.00137 -1.48971 2.47124 2.52595 1.11699 90 -1.35174e-014 -1.90833e-014 -10.6019 0.725729 -178.082 -32.5947 -0.587644 0.55016 6.02015 -0.73184 -1.43217 90 -1.27222e-014 -1.27222e-014 
-80.5061 88.2745 -45.3728 -92.5914 55.9096 -179.078 1.19486 -1.04165 0.493768 2.39928 -2.07226 1.00954 2.39927 -2.07224 1.00954 -6.40429 -12.6837 -17.7903 39.0583 -15.0643 27.4747 -178.917 -13.1167 -100.169 -24.2972 3.9628 82.5726 -21.6239 1.96829 -13.9448 28.9676 -87.5133 31.7568 -179.056 -15.8002 67.5409 -10.5994 -2.4502 -82.1362 -19.6167 -1.90065 12.1931 4.27659 82.5322 -4.19422 -11.5193 -2.2723 -179.895 -26.726 1.00181 -1.45271 1.9484 3.18267 1.18796 90 4.77083e-015 -6.36111e-015 -10.5546 0.70127 -177.286 -32.0647 -0.608803 0.555119 5.57505 1.74063 -1.09553 90 -1.90833e-014 -6.36111e-015 
-80.5585 88.235 -45.9342 -92.2336 54.4687 179.958 1.37666 -0.726181 0.844502 2.76428 -1.43148 1.70659 2.76427 -1.43146 1.70658 -7.07347 -10.7982 -16.7876 39.7387 -12.6249 24.1764 -177.473 -11.2869 -99.1651 -28.5184 3.42663 82.5543 -22.4002 2.06551 -14.42 16.2737 -86.168 18.9665 -177.617 -14.1353 68.648 -13.11 -1.98245 -80.5414 -20.8839 -2.13876 12.8989 6.20717 84.5988 -6.15828 -13.2323 -2.38783 -179.504 -29.1427 0.99154 -1.36587 2.36943 4.49855 1.36238 90 -1.66979e-014 -1.59028e-014 -10.343 -0.382269 -176.904 -31.6112 -0.626386 0.538642 5.20828 2.38932 -0.970048 90 1.59028e-015 1.27222e-014 
-80.5635 88.2454 -46.437 -91.7984 53.2491 178.925 1.51447 -0.364476 1.10226 3.03575 -0.699148 2.21397 3.03575 -0.699162 2.21397 -7.71461 -8.68201 -15.4067 41.8339 -9.33376 21.1095 -176.037 -9.16606 -97.9147 -32.5036 3.53773 82.0091 -23.7831 2.25948 -15.1775 12.1079 -85.2576 14.6627 -176.146 -12.1635 70.0838 -13.9922 -1.19209 -79.2065 -21.8268 -2.32248 13.3998 6.07477 83.9512 -5.94664 -15.1212 -1.38404 -178.818 -31.6804 0.966068 -1.27938 2.34266 5.76149 1.51249 90 1.19271e-014 1.27222e-014 -10.0498 -1.5275 -176.595 -31.1584 -0.645145 0.513021 4.8003 2.34691 -0.919314 90 4.77083e-015 -6.36111e-015 
-80.4206 88.3538 -46.8616 -91.258 52.2177 178.814 1.74279 -0.0255519 1.39387 3.4857 -0.00827824 2.78802 3.4857 -0.00826116 2.78801 -9.66574 -6.17571 -14.3358 45.1299 -6.15122 16.9842 -173.354 -6.85743 -96.9345 -34.3617 2.17873 82.2416 -25.0689 2.48325 -15.9147 9.16664 -84.1764 11.98 -173.444 -10.0015 71.12 -15.8402 -0.493179 -76.0719 -22.0347 -2.35671 13.504 5.74665 84.2362 -5.61989 -16.305 0.202338 -178.876 -33.5282 0.942419 -1.20305 2.6753 6.59813 1.56868 90 7.15625e-015 1.59028e-014 -9.74794 -1.991 -177.192 -31.0093 -0.651949 0.505914 4.53228 2.81503 -0.812704 90 -1.59028e-015 -3.18055e-015 
-80.214 88.5332 -47.2769 -91.1846 50.6991 179.153 1.70565 0.324407 1.41557 3.40285 0.691217 2.82108 3.40285 0.69121 2.82106 -9.68809 -4.20425 -12.8835 47.3183 -2.70138 14.3288 -172.793 -4.67824 -95.9199 -36.4159 3.27732 82.1358 -26.9611 2.79691 -16.8674 11.2281 -85.3397 13.979 -172.808 -7.82287 72.3493 -15.5208 -0.175831 -75.0541 -22.2631 -2.40381 13.6235 5.02983 83.1429 -4.89437 -17.7817 1.28373 -178.891 -35.004 0.918699 -1.15211 2.65912 7.36994 1.62297 90 -2.38542e-015 -0 -9.43267 -2.44864 -177.852 -30.5034 -0.655296 0.507972 4.26607 3.80813 -0.629547 90 -9.54166e-015 3.18055e-015 
-79.9246 88.7138 -47.6642 -91.2815 49.2122 179.211 1.76134 0.773218 1.53986 3.50178 1.5936 3.05581 3.50178 1.59361 3.05579 -10.3848 -2.58597 -11.6291 48.6315 -0.137012 12.0702 -171.711 -2.98494 -95.0221 -37.6993 4.0404 81.7409 -28.8328 3.12238 -17.8011 23.953 -88.0023 26.6487 -171.662 -6.13512 73.4128 -13.8348 1.13463 -73.7467 -22.2484 -2.39611 13.5976 4.24165 82.1631 -4.11445 -19.0731 1.91759 -178.235 -35.5991 0.885007 -1.17299 2.12358 5.20728 1.38882 90 8.74653e-015 -0 -8.91775 -3.07241 -178.151 -29.4512 -0.658987 0.518849 3.63728 4.39013 -0.441513 90 9.54166e-015 3.18055e-015 
-79.5355 88.9475 -47.9351 -91.5807 47.314 179.251 1.75204 0.970205 1.67134 3.47584 1.99111 3.31311 3.47582 1.99113 3.31311 -11.2159 -1.13578 -11.7437 49.5841 2.78705 11.223 -170.656 -1.75603 -95.4355 -38.5814 5.08072 81.4614 -30.5284 3.44837 -18.6301 134.196 -88.8618 136.936 -170.581 -4.90167 73.1335 -12.7985 2.34961 -72.7327 -21.6343 -2.26998 13.2474 4.15056 81.7896 -3.98626 -20.1949 1.72461 -177.348 -34.8815 0.838114 -1.2629 0.700675 0.803279 0.733837 90 -1.27222e-014 3.18055e-015 -7.97513 -3.66044 -178.167 -27.7438 -0.661635 0.543797 2.8057 5.67563 -0.0992173 90 -1.59028e-015 3.18055e-015 
-79.0862 89.1781 -48.2423 -91.9373 45.4336 179.536 1.77145 1.15031 1.69674 3.50913 2.35253 3.3583 3.50912 2.35255 3.35829 -11.8288 -0.23748 -10.655 49.5108 3.2431 8.88227 -169.838 -0.691847 -94.5592 -37.637 5.21195 80.6537 -30.8924 3.5103 -18.7919 149.826 -88.516 152.404 -169.747 -3.8678 74.0425 -12.1114 3.16866 -72.1986 -21.5837 -2.26213 13.2257 4.48522 82.4243 -4.36366 -21.108 1.92653 -176.25 -33.022 0.77413 -1.37467 -1.6497 -2.10547 0.00378674 90 -3.18055e-015 -1.27222e-014 -7.22675 -3.74097 -178.308 -26.2885 -0.661775 0.580907 2.11715 7.46173 0.338765 90 -6.36111e-015 -6.36111e-015 
